<?xml version="1.0" encoding="UTF-8" standalone="no"?>
<svg
   xmlns:dc="http://purl.org/dc/elements/1.1/"
   xmlns:cc="http://creativecommons.org/ns#"
   xmlns:rdf="http://www.w3.org/1999/02/22-rdf-syntax-ns#"
   xmlns:svg="http://www.w3.org/2000/svg"
   xmlns="http://www.w3.org/2000/svg"
   id="svg36"
   xml:space="preserve"
   viewBox="0 0 10102 3500"
   height="3500"
   width="10102"
   version="1.1"><metadata
     id="metadata40"><rdf:RDF><cc:Work
         rdf:about=""><dc:format>image/svg+xml</dc:format><dc:type
           rdf:resource="http://purl.org/dc/dcmitype/StillImage" /></cc:Work></rdf:RDF></metadata><desc
     id="desc2">Created with Fabric.js 1.7.7</desc><defs
     id="defs4" /><g
     id="g34"
     transform="translate(5051.48,1750)"><g
       id="g32"
       transform="scale(47.79)"><g
         id="g16"
         transform="matrix(0.16999701,-0.00100879,0.00100879,0.16999701,-80.42,-3.23)"><path
           id="path6"
           transform="translate(-116.53123,-164.43509)"
           style="opacity:1;fill:#029e7f;fill-rule:nonzero;stroke:none;stroke-width:1;stroke-linecap:butt;stroke-linejoin:miter;stroke-miterlimit:10;stroke-dasharray:none"
           d="m 135,328.87 a 14.23,14.23 0 0 1 -10.2,-4.33 L 91.89,290.46 59.05,304 a 14,14 0 0 1 -5.26,1 14.2,14.2 0 0 1 -10.21,-4.33 L 4,259.67 A 14.16,14.16 0 0 1 0,249.83 V 82.49 A 14.17,14.17 0 0 1 9,69.29 L 9.19,69.21 173.86,1.08 a 14.17,14.17 0 0 1 15.62,3.25 l 39.58,41 a 14.19,14.19 0 0 1 4,9.84 c 0,0 0,167.52 0,167.59 a 14.08,14.08 0 0 1 -3.71,9.79 l -83.9,91.68 a 14.2,14.2 0 0 1 -10.27,4.61 z" /><path
           id="path8"
           transform="translate(-116.53,-164.435)"
           style="opacity:1;fill:#3bb39d;fill-rule:nonzero;stroke:none;stroke-width:1;stroke-linecap:butt;stroke-linejoin:miter;stroke-miterlimit:10;stroke-dasharray:none"
           d="m 179.48,14.3 39.58,41 -164.78,68.21 -39.58,-41 z" /><path
           id="path10"
           transform="translate(-116.53,-164.435)"
           style="opacity:1;fill:#d8eeed;fill-rule:nonzero;stroke:none;stroke-width:1;stroke-linecap:butt;stroke-linejoin:miter;stroke-miterlimit:10;stroke-dasharray:none"
           d="M 135.16,257.42 95.58,273.8 54.28,290.89 V 123.51 L 219.06,55.33 V 222.7 l -0.31,0.13 0.31,0.31 -27.82,30.4 -42,45.94 -14,15.34 z" /><path
           id="path12"
           transform="translate(-116.535,-164.435)"
           style="opacity:1;fill:#a0d9d0;fill-rule:nonzero;stroke:none;stroke-width:1;stroke-linecap:butt;stroke-linejoin:miter;stroke-miterlimit:10;stroke-dasharray:none"
           d="m 135.16,257.42 v 57.4 l -7,-7.3 L 95.58,273.8 Z M 14.7,82.49 14.37,82.62 V 250 L 54,291 54.3,290.88 V 123.51 Z" /><path
           id="path14"
           transform="translate(-116.53521,-164.43658)"
           style="opacity:1;fill:#029e7f;fill-rule:nonzero;stroke:none;stroke-width:1;stroke-linecap:butt;stroke-linejoin:miter;stroke-miterlimit:10;stroke-dasharray:none"
           d="m 220.86,53.6 v 0 l -39.58,-41 a 2.5,2.5 0 0 0 -2.75,-0.58 L 13.78,80.17 v 0 l -0.33,0.13 a 2.51,2.51 0 0 0 -1.58,2.32 V 250 a 2.56,2.56 0 0 0 0.7,1.74 l 39.61,41.05 a 2.51,2.51 0 0 0 1.8,0.76 2.3,2.3 0 0 0 0.93,-0.18 l 0.3,-0.12 v 0 L 95,276.76 l 38.39,39.8 v 0 a 2.39,2.39 0 0 0 0.89,0.59 2.36,2.36 0 0 0 0.9,0.17 2.51,2.51 0 0 0 1.85,-0.81 l 83.9,-91.68 a 2.5,2.5 0 0 0 0.64,-1.91 1.55,1.55 0 0 0 0,-0.22 V 55.33 A 2.53,2.53 0 0 0 220.86,53.6 Z M 51.78,285.13 16.87,249 V 88.34 l 34.91,36.18 z M 54.9,120.55 19.05,83.4 178.87,17.26 214.72,54.43 Z m 77.76,188.08 -32.73,-33.92 32.73,-13.55 z m 83.9,-87 a 2.47,2.47 0 0 0 -0.26,0.72 0.69,0.69 0 0 0 0,0.13 l -78.62,85.91 v -51 a 2.52,2.52 0 0 0 -2.5,-2.5 2.64,2.64 0 0 0 -0.95,0.19 l -77.43,32 v -162 L 216.56,59.07 Z" /></g><g
         id="g30"
         transform="matrix(3.29,0,0,3.29,23.5,0)"><g
           id="text28"
           style="font-weight:normal;font-size:16px;font-family:Prompt;opacity:1;fill:#08192e;fill-rule:nonzero;stroke:none;stroke-width:1;stroke-linecap:butt;stroke-linejoin:miter;stroke-miterlimit:10;stroke-dasharray:none"
           aria-label="Heyra"><path
             id="path42"
             style="opacity:1;fill:#08192e;stroke:none;stroke-width:0;stroke-linecap:butt;stroke-linejoin:miter;stroke-miterlimit:4;stroke-dasharray:none"
             d="m -21.86,-6.144 h 1.632 v 4.8 h 5.84 v -4.8 h 1.632 V 5.04 h -1.632 V 0.03199996 h -5.84 V 5.04 h -1.632 z" /><path
             id="path44"
             style="opacity:1;fill:#08192e;stroke:none;stroke-width:0;stroke-linecap:butt;stroke-linejoin:miter;stroke-miterlimit:4;stroke-dasharray:none"
             d="m -6.446,5.28 q -2.128,0 -3.344,-1.056 -1.2,-1.072 -1.2,-3.008 0,-1.88800004 1.072,-2.992 1.088,-1.104 3.088,-1.104 1.328,0 2.256,0.512 0.928,0.496 1.392,1.39199996 0.48,0.88 0.48,2.01600004 v 0.8 h -6.752 q 0.08,1.088 0.912,1.632 Q -7.694,4 -6.254,4 -5.518,4 -4.766,3.872 -4.014,3.728 -3.438,3.504 V 4.8 Q -3.95,5.008 -4.798,5.136 -5.63,5.28 -6.446,5.28 Z m 2.224,-4.57600004 q -0.032,-1.088 -0.72,-1.68 Q -5.614,-1.584 -6.862,-1.584 q -1.216,0 -1.888,0.62399996 -0.672,0.624 -0.704,1.664 z" /><path
             id="path46"
             style="opacity:1;fill:#08192e;stroke:none;stroke-width:0;stroke-linecap:butt;stroke-linejoin:miter;stroke-miterlimit:4;stroke-dasharray:none"
             d="m 0.69199998,8.208 q -0.864,0 -1.44,-0.176 V 6.768 q 0.416,0.16 1.024,0.16 0.56,0 0.88000002,-0.288 0.32,-0.272 0.576,-0.896 L 2.1,4.848 -1.26,-2.64 H 0.40399998 L 2.964,3.264 5.348,-2.64 H 7.012 L 3.556,5.904 q -0.48,1.2 -1.152,1.744 -0.656,0.56 -1.71200002,0.56 z" /><path
             id="path48"
             style="opacity:1;fill:#08192e;stroke:none;stroke-width:0;stroke-linecap:butt;stroke-linejoin:miter;stroke-miterlimit:4;stroke-dasharray:none"
             d="M 8.4499998,-2.64 H 10.018 v 1.376 q 0.48,-0.704 1.344,-1.04 0.88,-0.336 2.032,-0.336 v 1.264 q -1.232,0 -2.112,0.39999996 -0.88,0.4 -1.216,1.264 V 5.04 H 8.4499998 Z" /><path
             id="path50"
             style="opacity:1;fill:#08192e;stroke:none;stroke-width:0;stroke-linecap:butt;stroke-linejoin:miter;stroke-miterlimit:4;stroke-dasharray:none"
             d="m 17.582,5.28 q -1.392,0 -2.24,-0.704 -0.832,-0.72 -0.832,-1.936 0,-1.28 0.8,-1.96800004 0.816,-0.704 2.304,-0.704 1.584,0 2.688,0.64 v -0.4 q 0,-0.912 -0.56,-1.34399996 -0.544,-0.448 -1.728,-0.448 -0.704,0 -1.376,0.144 -0.656,0.128 -1.184,0.368 v -1.312 q 0.48,-0.224 1.248,-0.352 0.768,-0.144 1.488,-0.144 1.904,0 2.816,0.848 0.928,0.832 0.928,2.31999996 V 5.04 h -1.52 V 4.176 Q 19.918,4.72 19.23,5.008 18.558,5.28 17.582,5.28 Z m 0.4,-1.232 q 0.768,0 1.392,-0.304 0.624,-0.304 0.928,-0.848 v -1.04 q -1.04,-0.672 -2.32,-0.672 -0.928,0 -1.392,0.368 -0.448,0.352 -0.448,1.088 0,1.408 1.84,1.408 z" /></g></g></g></g></svg>